<mxfile host="app.diagrams.net">
  <diagram name="Superstore ERD - Chen Notation" id="superstore-erd-chen">
    <mxGraphModel dx="1320" dy="960" grid="1" gridSize="10" guides="1">
      <root>
        <mxCell id="0"/>
        <mxCell id="1" parent="0"/>

        <!-- ðŸ”· Entidades -->
        <mxCell id="Customer" value="Customer" style="shape=rectangle;fillColor=#dae8fc;fontSize=14;" vertex="1" parent="1">
          <mxGeometry x="60" y="80" width="100" height="40" as="geometry"/>
        </mxCell>
        <mxCell id="Order" value="Order" style="shape=rectangle;fillColor=#dae8fc;fontSize=14;" vertex="1" parent="1">
          <mxGeometry x="280" y="80" width="100" height="40" as="geometry"/>
        </mxCell>
        <mxCell id="Product" value="Product" style="shape=rectangle;fillColor=#dae8fc;fontSize=14;" vertex="1" parent="1">
          <mxGeometry x="60" y="300" width="100" height="40" as="geometry"/>
        </mxCell>
        <mxCell id="OrderDetail" value="OrderDetail" style="shape=rectangle;fillColor=#dae8fc;fontSize=14;" vertex="1" parent="1">
          <mxGeometry x="280" y="300" width="120" height="40" as="geometry"/>
        </mxCell>

        <!-- ðŸ”¶ Relaciones -->
        <mxCell id="RelPlaces" value="places" style="shape=rhombus;fillColor=#e1d5e7;fontSize=12;" vertex="1" parent="1">
          <mxGeometry x="180" y="90" width="60" height="40" as="geometry"/>
        </mxCell>
        <mxCell id="RelContains" value="contains" style="shape=rhombus;fillColor=#e1d5e7;fontSize=12;" vertex="1" parent="1">
          <mxGeometry x="400" y="200" width="60" height="40" as="geometry"/>
        </mxCell>
        <mxCell id="RelDescribes" value="describes" style="shape=rhombus;fillColor=#e1d5e7;fontSize=12;" vertex="1" parent="1">
          <mxGeometry x="180" y="310" width="60" height="40" as="geometry"/>
        </mxCell>

        <!-- âšª Atributos de Customer -->
        <mxCell id="customer_id" value="customer_id (PK)" style="ellipse;whiteSpace=wrap;html=1;" vertex="1" parent="1">
          <mxGeometry x="-20" y="40" width="120" height="30" as="geometry"/>
        </mxCell>
        <mxCell id="customer_name" value="customer_name" style="ellipse;" vertex="1" parent="1">
          <mxGeometry x="-20" y="140" width="120" height="30" as="geometry"/>
        </mxCell>
        <mxCell id="customer_to_id" edge="1" source="customer_id" target="Customer" style="endArrow=none;" parent="1">
          <mxGeometry relative="1" as="geometry"/>
        </mxCell>
        <mxCell id="customer_to_name" edge="1" source="customer_name" target="Customer" style="endArrow=none;" parent="1">
          <mxGeometry relative="1" as="geometry"/>
        </mxCell>

        <!-- âšª Atributos de Product -->
        <mxCell id="product_id" value="product_id (PK)" style="ellipse;" vertex="1" parent="1">
          <mxGeometry x="0" y="360" width="120" height="30" as="geometry"/>
        </mxCell>
        <mxCell id="product_to_id" edge="1" source="product_id" target="Product" style="endArrow=none;" parent="1">
          <mxGeometry relative="1" as="geometry"/>
        </mxCell>

        <!-- âšª Atributos de OrderDetail -->
        <mxCell id="quantity" value="quantity" style="ellipse;" vertex="1" parent="1">
          <mxGeometry x="280" y="360" width="100" height="30" as="geometry"/>
        </mxCell>
        <mxCell id="quantity_edge" edge="1" source="quantity" target="OrderDetail" style="endArrow=none;" parent="1">
          <mxGeometry relative="1" as="geometry"/>
        </mxCell>

        <!-- âž¡ Aristas con cardinalidad -->
        <mxCell id="edge1" value="1:N" edge="1" parent="1" source="Customer" target="RelPlaces" style="endArrow=none;fontSize=12;">
          <mxGeometry relative="1" as="geometry"/>
        </mxCell>
        <mxCell id="edge2" value="1:1" edge="1" parent="1" source="Order" target="RelPlaces" style="endArrow=none;fontSize=12;">
          <mxGeometry relative="1" as="geometry"/>
        </mxCell>

        <mxCell id="edge3" value="1:N" edge="1" parent="1" source="Order" target="RelContains" style="endArrow=none;fontSize=12;">
          <mxGeometry relative="1" as="geometry"/>
        </mxCell>
        <mxCell id="edge4" value="N:1" edge="1" parent="1" source="OrderDetail" target="RelContains" style="endArrow=none;fontSize=12;">
          <mxGeometry relative="1" as="geometry"/>
        </mxCell>

        <mxCell id="edge5" value="N:1" edge="1" parent="1" source="OrderDetail" target="RelDescribes" style="endArrow=none;fontSize=12;">
          <mxGeometry relative="1" as="geometry"/>
        </mxCell>
        <mxCell id="edge6" value="1:N" edge="1" parent="1" source="Product" target="RelDescribes" style="endArrow=none;fontSize=12;">
          <mxGeometry relative="1" as="geometry"/>
        </mxCell>

      </root>
    </mxGraphModel>
  </diagram>
</mxfile>